<?xml version="1.0" standalone="no"?>
<!DOCTYPE svg PUBLIC "-//W3C//DTD SVG 20010904//EN"
 "http://www.w3.org/TR/2001/REC-SVG-20010904/DTD/svg10.dtd">
<svg version="1.0" xmlns="http://www.w3.org/2000/svg"
 width="566.000000pt" height="566.000000pt" viewBox="0 0 566.000000 566.000000"
 preserveAspectRatio="xMidYMid meet">
<metadata>
Created by potrace 1.14, written by Peter Selinger 2001-2017
</metadata>
<g transform="translate(0.000000,566.000000) scale(0.100000,-0.100000)"
fill="#000000" stroke="none">
<path d="M200 3910 c-69 -20 -136 -76 -173 -144 l-22 -41 -3 -968 -3 -967 25
-25 c14 -14 37 -25 53 -26 34 -1 362 -1 419 0 25 1 51 9 65 20 l24 19 1 324
c0 177 -3 337 -8 355 -11 41 -49 86 -87 105 -28 13 -19 14 112 14 219 0 377
15 539 54 96 23 125 20 158 -15 22 -23 22 -26 23 -425 l0 -403 24 -23 c13 -13
32 -24 41 -25 9 0 118 -1 241 -1 206 0 226 2 250 20 l26 19 2 1047 3 1047 -25
25 c-25 25 -27 25 -181 23 -190 -1 -226 -11 -300 -83 -74 -72 -81 -105 -82
-346 -1 -323 1 -304 -27 -332 -64 -64 -312 -127 -529 -134 -118 -4 -159 8
-173 51 -4 11 -7 191 -8 400 0 209 -4 390 -9 403 -4 13 -19 28 -34 33 -28 11
-303 10 -342 -1z"/>
<path d="M2271 3908 c-51 -9 -115 -44 -154 -86 -50 -52 -65 -112 -63 -250 2
-173 -19 -162 298 -162 250 0 272 -3 307 -37 8 -8 16 -36 18 -61 2 -26 5 -381
6 -789 l2 -742 23 -23 c22 -23 26 -23 272 -23 246 0 250 1 272 23 l23 23 1
737 c0 405 -3 751 -8 769 -10 38 -60 90 -103 109 -26 11 21 13 322 14 193 0
363 4 376 9 13 5 28 18 32 28 12 26 15 382 4 420 -6 17 -18 35 -27 39 -22 10
-1543 12 -1601 2z"/>
<path d="M4309 3908 c-114 -11 -196 -69 -237 -169 -21 -50 -22 -57 -22 -1005
l0 -955 24 -24 25 -25 235 0 c231 0 235 0 262 23 l27 23 0 280 c0 153 -3 295
-7 315 -7 42 -53 94 -99 114 -28 12 29 14 428 15 492 1 485 0 503 51 7 18 10
357 3 391 0 4 -11 16 -22 27 -21 19 -36 20 -407 21 -211 0 -388 2 -392 5 -4 2
-7 69 -7 148 0 116 -4 151 -18 181 -17 36 -71 86 -93 86 -6 0 -13 3 -15 8 -3
4 246 7 553 7 l558 0 26 24 26 24 0 183 c0 192 -6 223 -44 243 -24 13 -1187
21 -1307 9z"/>
</g>
</svg>
